<?xml version="1.0" encoding="UTF-8"?>
<svg xmlns="http://www.w3.org/2000/svg" xmlns:xlink="http://www.w3.org/1999/xlink" width="626.1pt" height="70.9pt" viewBox="0 0 626.1 70.9" version="1.1">
<defs>
<clipPath id="clip1">
  <path d="M 0 0 L 55 0 L 55 70.898438 L 0 70.898438 Z M 0 0 "/>
</clipPath>
<clipPath id="clip2">
  <path d="M 58 0 L 124 0 L 124 70.898438 L 58 70.898438 Z M 58 0 "/>
</clipPath>
<clipPath id="clip3">
  <path d="M 129 0 L 168 0 L 168 70.898438 L 129 70.898438 Z M 129 0 "/>
</clipPath>
<clipPath id="clip4">
  <path d="M 170 0 L 234 0 L 234 70.898438 L 170 70.898438 Z M 170 0 "/>
</clipPath>
<clipPath id="clip5">
  <path d="M 238 0 L 250 0 L 250 70.898438 L 238 70.898438 Z M 238 0 "/>
</clipPath>
<clipPath id="clip6">
  <path d="M 254 0 L 319 0 L 319 70.898438 L 254 70.898438 Z M 254 0 "/>
</clipPath>
<clipPath id="clip7">
  <path d="M 322 0 L 388 0 L 388 70.898438 L 322 70.898438 Z M 322 0 "/>
</clipPath>
<clipPath id="clip8">
  <path d="M 394 0 L 457 0 L 457 70.898438 L 394 70.898438 Z M 394 0 "/>
</clipPath>
<clipPath id="clip9">
  <path d="M 532 0 L 626 0 L 626 70.898438 L 532 70.898438 Z M 532 0 "/>
</clipPath>
<clipPath id="clip10">
  <path d="M 462 10 L 533 10 L 533 70.898438 L 462 70.898438 Z M 462 10 "/>
</clipPath>
</defs>
<g id="surface1">
<g clip-path="url(#clip1)" clip-rule="nonzero">
<path style=" stroke:none;fill-rule:evenodd;fill:rgb(39.208984%,39.208984%,39.208984%);fill-opacity:1;" d="M 29.972656 30.160156 C 18.050781 27.589844 12.828125 25.839844 12.828125 19.929688 C 12.828125 13.878906 18.480469 10.261719 27.9375 10.261719 C 35.753906 10.261719 42.164063 13.457031 45.980469 19.246094 L 46.546875 19.855469 L 47.203125 19.855469 C 48.730469 19.855469 53.140625 17.828125 53.140625 13.9375 C 53.140625 8.226563 44.382813 0.3125 27.933594 0.3125 C 12.371094 0.3125 1.921875 8.691406 1.921875 21.148438 C 1.921875 35.34375 15.628906 38.304688 25.648438 40.472656 C 37.859375 43.046875 43.730469 44.582031 43.730469 51.246094 C 43.730469 57.292969 37.925781 60.914063 28.210938 60.914063 C 18.960938 60.914063 11.828125 57.550781 6.878906 50.777344 L 6.371094 50.390625 L 5.863281 50.390625 C 4.457031 50.390625 0.015625 52.207031 0.015625 56.417969 C 0.015625 62.457031 10.636719 70.859375 27.929688 70.859375 C 44.234375 70.859375 54.765625 62.628906 54.765625 49.878906 C 54.773438 35.640625 40.570313 32.503906 29.972656 30.160156 Z M 29.972656 30.160156 "/>
</g>
<g clip-path="url(#clip2)" clip-rule="nonzero">
<path style=" stroke:none;fill-rule:evenodd;fill:rgb(39.208984%,39.208984%,39.208984%);fill-opacity:1;" d="M 92.378906 0.308594 C 73.050781 0.308594 58.472656 15.59375 58.472656 35.859375 C 58.472656 56.464844 72.753906 70.855469 93.195313 70.855469 C 110.941406 70.855469 121.804688 60.714844 121.804688 55.191406 C 121.804688 50.738281 117.421875 48.847656 115.675781 48.847656 C 114.9375 48.847656 114.558594 49.191406 114.347656 49.507813 C 110.96875 54.945313 105.8125 60.496094 93.195313 60.496094 C 80.492188 60.496094 71.074219 51.835938 69.871094 39.261719 L 118.933594 39.257813 C 121.308594 39.257813 123.84375 38.929688 123.84375 35.042969 L 123.84375 34.226563 C 123.84375 13.941406 111.203125 0.308594 92.378906 0.308594 Z M 92.378906 10.53125 C 103.285156 10.53125 110.664063 17.644531 111.875 29.183594 L 70.429688 29.183594 C 72.738281 17.96875 81.394531 10.53125 92.378906 10.53125 Z M 92.378906 10.53125 "/>
</g>
<g clip-path="url(#clip3)" clip-rule="nonzero">
<path style=" stroke:none;fill-rule:evenodd;fill:rgb(39.208984%,39.208984%,39.208984%);fill-opacity:1;" d="M 156.585938 0.246094 C 149.390625 0.246094 144.03125 3.289063 140.589844 9.300781 C 140.175781 4.011719 137.855469 1.339844 133.703125 1.339844 C 132.382813 1.339844 129.480469 1.882813 129.480469 3.515625 L 129.480469 65.402344 C 129.480469 68.96875 131.277344 70.851563 134.660156 70.851563 L 135.609375 70.851563 C 139 70.851563 140.789063 68.96875 140.789063 65.402344 L 140.789063 38.785156 C 140.789063 26.246094 143.363281 11.285156 155.628906 11.285156 C 158.617188 11.285156 160.742188 12.015625 162.652344 13.644531 L 163.101563 14.042969 L 163.613281 14.042969 C 165.066406 14.042969 167.207031 11.566406 167.207031 8.144531 C 167.210938 3.207031 163.242188 0.246094 156.585938 0.246094 Z M 156.585938 0.246094 "/>
</g>
<g clip-path="url(#clip4)" clip-rule="nonzero">
<path style=" stroke:none;fill-rule:evenodd;fill:rgb(39.208984%,39.208984%,39.208984%);fill-opacity:1;" d="M 228.398438 0.710938 C 224.851563 0.710938 222.953125 2.558594 220.84375 8.035156 L 202.3125 57.285156 L 183.6875 8.027344 C 181.523438 2.414063 179.695313 0.710938 175.867188 0.710938 C 173.808594 0.710938 171.957031 1.503906 170.90625 2.855469 C 170.601563 3.246094 170.109375 4.027344 170.363281 4.980469 L 195.039063 66.796875 C 196.246094 69.726563 197.171875 70.835938 202.171875 70.835938 C 207.046875 70.835938 208.535156 69.382813 209.714844 66.519531 L 233.921875 4.90625 C 234.109375 4.363281 233.945313 3.726563 233.445313 3.039063 C 233.042969 2.503906 231.507813 0.710938 228.398438 0.710938 Z M 228.398438 0.710938 "/>
</g>
<g clip-path="url(#clip5)" clip-rule="nonzero">
<path style=" stroke:none;fill-rule:evenodd;fill:rgb(39.208984%,39.208984%,39.208984%);fill-opacity:1;" d="M 244.304688 0.710938 L 243.351563 0.710938 C 239.957031 0.710938 238.175781 2.59375 238.175781 6.152344 L 238.175781 65.402344 C 238.175781 68.96875 239.960938 70.851563 243.351563 70.851563 L 244.304688 70.851563 C 247.695313 70.851563 249.480469 68.96875 249.480469 65.402344 L 249.480469 6.152344 C 249.480469 2.59375 247.691406 0.710938 244.304688 0.710938 Z M 244.304688 0.710938 "/>
</g>
<g clip-path="url(#clip6)" clip-rule="nonzero">
<path style=" stroke:none;fill-rule:evenodd;fill:rgb(39.208984%,39.208984%,39.208984%);fill-opacity:1;" d="M 289.238281 10.671875 C 299.460938 10.671875 306.308594 15.101563 310.210938 24.292969 C 310.484375 24.84375 311.050781 25.117188 311.898438 25.117188 C 314.15625 25.117188 318.394531 23.476563 318.394531 19.515625 C 318.394531 12.621094 308.644531 0.3125 289.234375 0.3125 C 269.511719 0.3125 254.640625 15.421875 254.640625 35.457031 C 254.640625 55.640625 269.511719 70.859375 289.234375 70.859375 C 308.644531 70.859375 318.394531 58.542969 318.394531 51.65625 C 318.394531 47.691406 314.15625 46.054688 311.898438 46.054688 C 311.046875 46.054688 310.484375 46.339844 310.171875 46.960938 C 306.308594 56.070313 299.460938 60.503906 289.234375 60.503906 C 275.828125 60.503906 266.09375 49.972656 266.09375 35.464844 C 266.101563 21.09375 275.832031 10.671875 289.238281 10.671875 Z M 289.238281 10.671875 "/>
</g>
<g clip-path="url(#clip7)" clip-rule="nonzero">
<path style=" stroke:none;fill-rule:evenodd;fill:rgb(39.208984%,39.208984%,39.208984%);fill-opacity:1;" d="M 356.449219 0.308594 C 337.109375 0.308594 322.527344 15.59375 322.527344 35.859375 C 322.527344 56.464844 336.8125 70.855469 357.261719 70.855469 C 375.007813 70.855469 385.871094 60.714844 385.871094 55.191406 C 385.871094 50.738281 381.484375 48.847656 379.738281 48.847656 C 379.003906 48.847656 378.621094 49.191406 378.417969 49.503906 C 375.035156 54.945313 369.871094 60.496094 357.261719 60.496094 C 344.558594 60.496094 335.140625 51.839844 333.9375 39.265625 L 382.992188 39.261719 C 385.371094 39.261719 387.902344 38.9375 387.902344 35.046875 L 387.902344 34.230469 C 387.90625 13.941406 375.261719 0.308594 356.449219 0.308594 Z M 356.449219 10.53125 C 367.347656 10.53125 374.722656 17.644531 375.941406 29.183594 L 334.496094 29.183594 C 336.808594 17.96875 345.46875 10.53125 356.449219 10.53125 Z M 356.449219 10.53125 "/>
</g>
<g clip-path="url(#clip8)" clip-rule="nonzero">
<path style=" stroke:none;fill-rule:evenodd;fill:rgb(82.03125%,13.719177%,16.868591%);fill-opacity:1;" d="M 430.246094 0.550781 C 421.953125 0.550781 414.757813 3.839844 409.679688 9.886719 C 408.347656 3.042969 404.0625 1.496094 400.453125 1.496094 C 398.390625 1.496094 394.339844 2.328125 394.339844 4.253906 L 394.339844 63.289063 C 394.339844 68.261719 396.828125 70.878906 401.523438 70.878906 L 403 70.878906 C 407.710938 70.878906 410.195313 68.257813 410.195313 63.289063 L 410.191406 25.085938 C 413.445313 18.539063 419.554688 14.796875 427.027344 14.796875 C 435.550781 14.796875 440.640625 20.886719 440.640625 31.09375 L 440.640625 63.289063 C 440.640625 68.257813 443.128906 70.878906 447.828125 70.878906 L 449.308594 70.882813 C 454.015625 70.882813 456.492188 68.257813 456.492188 63.289063 L 456.492188 29.484375 C 456.496094 11.367188 446.6875 0.550781 430.246094 0.550781 Z M 430.246094 0.550781 "/>
</g>
<g clip-path="url(#clip9)" clip-rule="nonzero">
<path style=" stroke:none;fill-rule:evenodd;fill:rgb(82.03125%,13.719177%,16.868591%);fill-opacity:1;" d="M 625.414063 4.445313 C 624.328125 3.109375 620.742188 0.617188 617.035156 0.617188 C 615.464844 0.617188 610.21875 1.214844 608.9375 8.742188 L 599.652344 50.605469 L 589.144531 16.488281 C 588.015625 12.601563 585.152344 10.867188 579.863281 10.867188 C 574.480469 10.867188 571.574219 12.601563 570.453125 16.460938 L 559.542969 50.964844 L 550.101563 8.859375 C 548.664063 1.503906 543.859375 0.710938 541.855469 0.710938 C 538.222656 0.710938 534.222656 3.03125 533.070313 4.628906 C 532.5625 5.339844 532.601563 5.917969 532.707031 6.230469 L 549.238281 65.652344 C 550.578125 70.242188 554.558594 70.875 558.660156 70.875 C 564.21875 70.875 566.464844 69.519531 567.929688 65.296875 L 579.582031 30.003906 L 590.863281 65.300781 C 592.300781 69.625 594.414063 70.878906 600.273438 70.878906 C 604.40625 70.878906 608.40625 70.25 609.5625 65.644531 L 625.957031 6.046875 C 626.101563 5.277344 625.585938 4.648438 625.414063 4.445313 Z M 625.414063 4.445313 "/>
</g>
<g clip-path="url(#clip10)" clip-rule="nonzero">
<path style=" stroke:none;fill-rule:evenodd;fill:rgb(82.03125%,13.719177%,16.868591%);fill-opacity:1;" d="M 529.261719 19.515625 C 528.609375 18.136719 526.050781 13.304688 523.082031 11.777344 C 518.28125 8.941406 513.277344 12.890625 511.65625 15.644531 C 511.054688 16.664063 510.992188 17.554688 511.515625 18.378906 C 512.953125 20.308594 514.847656 23.488281 515.40625 24.707031 C 516.878906 27.921875 517.863281 31.589844 517.863281 35.667969 C 517.863281 48.222656 509.371094 57.339844 497.664063 57.339844 C 486.074219 57.339844 477.324219 47.90625 477.324219 35.398438 C 477.324219 31.40625 478.21875 27.777344 479.761719 24.652344 C 480.683594 22.78125 481.90625 20.800781 483.78125 18.378906 C 484.308594 17.546875 484.246094 16.660156 483.644531 15.636719 C 482.023438 12.886719 477.015625 8.933594 472.21875 11.769531 C 469.359375 13.417969 466.996094 17.210938 465.886719 19.457031 C 463.726563 24.144531 462.535156 29.511719 462.535156 35.398438 C 462.535156 56.238281 476.984375 70.789063 497.664063 70.789063 C 518.015625 70.789063 532.785156 56.015625 532.785156 35.667969 C 532.78125 29.734375 531.511719 24.289063 529.261719 19.515625 Z M 529.261719 19.515625 "/>
</g>
<path style=" stroke:none;fill-rule:evenodd;fill:rgb(82.03125%,13.719177%,16.868591%);fill-opacity:1;" d="M 498.222656 -0.0820313 L 497.203125 -0.0820313 C 493.035156 -0.0820313 490.636719 2.90625 490.636719 8.128906 L 490.636719 35.789063 C 490.636719 40.929688 493.03125 43.878906 497.203125 43.878906 L 498.222656 43.878906 C 502.390625 43.878906 504.683594 41.003906 504.683594 35.789063 L 504.683594 8.128906 C 504.683594 2.835938 502.390625 -0.0820313 498.222656 -0.0820313 Z M 498.222656 -0.0820313 "/>
</g>
</svg>
